<svg width="237" height="130" viewBox="0 0 237 130" fill="none" xmlns="http://www.w3.org/2000/svg">
<path d="M31.3887 25.5042C30.7887 30.5335 30.5488 35.2053 29.5889 39.7103C28.8209 43.3095 30.2368 45.0972 33.0205 46.9325C39.2839 51.1037 45.3793 55.5134 51.4507 59.9706C53.9944 61.8298 56.5621 63.8082 58.6019 66.1918C60.1378 67.9794 60.9297 70.4345 61.8176 72.6989C65.4412 81.828 66.2092 91.3623 65.4412 100.992C65.1533 104.52 63.7134 107.952 62.7055 111.408C62.5375 111.98 61.8896 112.457 61.3616 112.862C55.4582 117.582 49.4109 122.063 42.0676 124.351C36.6202 126.067 31.1727 127.831 25.3173 127.569C24.0214 127.521 22.7256 127.402 21.4537 127.521C16.0062 128.093 11.5667 125.28 6.88716 123.302C6.07124 122.968 5.35131 121.991 4.96735 121.157C2.85556 116.557 0.959756 111.837 0.575795 106.689C0.479804 105.425 -0.0241447 104.162 -0.000147131 102.923C0.047848 101.063 -0.0961374 98.942 0.743778 97.3927C4.07944 91.2669 4.19943 91.3384 11.3987 90.5995C15.9582 90.1466 16.0062 90.099 18.55 93.9604C19.5339 95.4382 20.2058 97.1067 21.0457 98.6798C21.2857 99.1089 21.5977 99.5379 21.9816 99.8716C23.8534 101.492 25.7492 103.113 27.6931 104.639C28.197 105.044 29.0369 105.354 29.6609 105.258C32.5646 104.829 35.4923 104.4 38.324 103.638C39.3559 103.352 40.3878 102.303 40.9397 101.326C41.8756 99.6333 42.3796 97.7026 43.1955 95.9626C44.0594 94.151 43.7954 92.6256 42.8595 90.8856C37.2201 80.2548 28.197 72.6989 19.3659 64.9523C17.0381 62.9263 14.7344 60.8526 12.3826 58.8504C7.67908 54.846 4.79937 49.5544 1.84767 44.3344C1.70368 44.0722 1.4637 43.81 1.4637 43.5478C1.5357 38.7569 1.43971 33.942 1.82367 29.1749C1.99165 27.0058 2.97555 24.8368 3.79147 22.7631C4.39141 21.2853 5.27932 19.9028 6.16723 18.568C6.69518 17.7576 7.55909 17.1855 8.13503 16.399C11.3267 11.8225 16.0782 9.7488 21.1657 8.0803C29.7088 5.29152 38.156 5.55371 46.6751 8.19947C49.4109 9.05756 51.4507 10.5354 53.5864 12.4184C59.7058 17.8529 60.7137 25.1467 61.8656 32.4642C62.2256 34.7525 62.2016 37.1122 62.3695 39.4243C62.4655 40.7352 62.0096 41.3073 60.6177 41.4503C54.4743 42.0939 48.307 42.8328 42.1636 43.5717C40.1238 43.81 39.4279 42.6897 39.2599 40.9974C39.0439 38.8284 38.8519 36.6593 38.7319 34.4903C38.6119 32.2974 38.06 30.462 35.9962 29.1987C34.5084 28.2453 33.1885 26.9582 31.3887 25.5042Z" fill="#D5BB45" fill-opacity="0.8"/>
<path d="M95.2945 28.7697C95.2945 37.3267 95.2945 45.6216 95.2945 54.0594C98.2942 54.3931 101.054 54.7745 103.79 54.9413C106.885 55.1559 109.981 55.1559 113.077 55.275C114.972 55.3465 116.148 56.2761 115.86 58.2545C115.092 63.26 115.02 68.2417 115.86 73.2472C116.148 75.011 114.996 76.0121 113.173 75.8453C107.941 75.3685 102.686 74.8918 97.2143 74.3674C96.7104 84.9267 98.5582 95.7004 99.0381 106.736C101.174 106.856 103.19 107.022 105.205 107.094C111.181 107.308 117.156 107.428 123.108 107.714C124.044 107.761 125.147 108.405 125.819 109.12C126.995 110.359 128.027 111.79 128.915 113.291C129.587 114.411 130.163 115.699 130.355 116.962C130.739 119.393 130.715 121.896 131.099 124.351C131.339 125.829 130.595 126.353 129.491 126.52C125.627 127.068 121.74 127.831 117.852 127.926C109.765 128.141 101.654 128.093 93.5667 127.95C89.7271 127.879 86.0794 128.403 82.4558 129.571C79.8641 130.405 79.3601 130.167 78.7362 127.402C78.3042 125.447 78.1122 123.421 78.0163 121.419C76.8884 101.993 76.8164 82.5431 77.6083 63.0931C78.0642 51.9142 77.6083 40.7114 77.4883 29.5325C77.3923 22.0957 77.1283 14.659 76.9844 7.22223C76.9364 4.67181 77.5843 4.02825 80.488 4.17126C88.2632 4.5288 96.0144 5.02935 103.766 5.48222C109.957 5.83976 116.124 6.24497 122.316 6.57867C125.699 6.76935 126.659 7.57977 125.891 10.7022C124.619 15.7554 125.555 20.6656 126.131 25.6472C126.443 28.3645 125.387 29.2703 122.772 29.0557C118.716 28.722 114.661 28.6744 110.581 28.6267C106.357 28.579 102.11 28.722 97.8862 28.7697C96.9743 28.7697 96.0864 28.7697 95.2945 28.7697Z" fill="#D5BB45" fill-opacity="0.8"/>
<path d="M159.608 104.925C166.327 104.472 172.663 104.21 178.974 103.59C182.382 103.256 182.382 102.994 182.838 106.355C183.557 111.623 184.253 116.89 184.901 122.158C185.237 124.899 184.781 125.352 182.07 125.4C171.103 125.59 160.16 125.805 149.193 125.924C146.649 125.948 144.105 125.686 141.394 125.543C141.082 121.085 140.65 116.914 140.554 112.719C140.146 95.0807 139.906 77.4184 139.498 59.78C139.114 41.9747 138.61 24.1933 138.178 6.38798C138.106 3.74222 141.85 -0.11917 144.537 8.31213e-06C150.273 0.262201 155.984 0.667408 162.08 1.02494C161.264 35.4199 160.448 69.8387 159.608 104.925Z" fill="#D5BB45" fill-opacity="0.8"/>
<path d="M214.082 1.02497C213.266 35.5391 212.451 69.934 211.635 104.496C218.762 104.567 225.625 104.925 232.345 103.09C234.192 102.589 234.48 103.757 234.672 104.925C235.104 107.737 235.392 110.574 235.752 113.41C236.112 116.223 236.472 119.059 236.88 121.872C237.312 124.804 236.856 125.376 233.952 125.424C223.585 125.59 213.242 125.805 202.876 125.972C200.452 125.996 198.028 125.733 195.628 125.781C193.948 125.805 193.348 124.995 193.228 123.517C193.06 121.348 192.797 119.179 192.749 117.01C192.413 103.948 192.101 90.8618 191.837 77.7998C191.333 54.0594 190.853 30.3191 190.349 6.57869C190.277 3.74224 193.732 -0.0953095 196.492 3.34108e-05C202.228 0.238391 207.963 0.667433 214.082 1.02497Z" fill="#D5BB45" fill-opacity="0.8"/>
</svg>
