<svg width="150" height="51" viewBox="0 0 150 51" fill="none" xmlns="http://www.w3.org/2000/svg">
<path d="M136.975 11.7262C136.039 11.8286 135.034 11.914 134.045 12.0676C133.803 12.1017 133.595 12.3578 133.404 12.5626C133.265 12.7162 133.213 12.921 133.127 13.1259C132.762 14.0646 131.93 15.1229 132.138 15.9422C132.52 17.5467 133.057 19.2536 134.618 20.2948C137.131 21.9505 139.593 23.7086 142.177 25.2447C146.112 27.6003 148.539 30.9287 149.58 35.3154C150.36 38.6267 150.048 41.904 148.695 44.9422C148.071 46.3419 146.719 47.5879 145.401 48.4755C143.026 50.1141 140.27 51.0699 137.322 50.9675C135.103 50.8992 132.797 50.7456 130.699 50.1141C128.723 49.5167 126.781 48.5608 125.914 46.2736C125.221 44.4472 124.701 42.655 124.926 40.7091C124.995 40.1629 125.273 39.6509 125.498 39.1388C126.504 36.9369 128.602 37.2271 130.491 37.0735C130.769 37.0564 131.185 37.4661 131.375 37.7733C132.329 39.3436 133.179 40.9652 134.149 42.5184C134.357 42.8598 134.86 43.1158 135.276 43.2524C137.53 43.9864 139.368 42.911 141.188 41.8527C141.362 41.7503 141.639 41.6138 141.657 41.4602C141.813 39.9069 142.61 38.4731 141.83 36.7492C140.703 34.2571 138.831 32.6356 136.49 31.5261C132.745 29.7509 129.538 27.2418 126.452 24.6132C125.221 23.572 124.458 21.6944 124.076 20.0558C123.244 16.5226 123.002 12.904 124.51 9.40485C125.377 7.37365 126.677 5.76918 128.636 4.57436C131.41 2.90161 134.41 3.15764 137.444 3.41368C138.518 3.49902 139.593 3.75505 140.668 3.99402C143.477 4.59143 144.864 6.67383 145.939 9.0464C146.095 9.37071 146.164 9.76329 146.164 10.1217C146.182 12.1188 146.216 14.1159 146.147 16.1129C146.13 16.5396 145.783 17.0858 145.419 17.3589C143.806 18.5708 142.021 19.0658 139.975 18.6391C139.299 18.5025 138.935 18.3319 138.744 17.6832C138.172 15.7374 137.582 13.7915 136.975 11.7262Z" fill="#C4AC3F"/>
<path d="M65.9445 34.6156C66.4126 38.7292 66.846 42.6721 67.3315 46.6321C67.4875 47.8781 66.5166 50.08 65.4244 50.6603C65.2163 50.7628 64.9389 50.7628 64.6962 50.7457C64.1068 50.7116 63.5173 50.6433 62.9278 50.5921C60.1885 50.3531 58.7495 49.1242 58.4895 46.4614C58.1601 43.1159 57.9 39.7534 57.796 36.3908C57.4839 26.3202 57.2759 16.2666 57.0331 6.19598C56.9811 4.30134 58.1947 3.15773 60.1018 3.27721C63.6733 3.51617 67.2795 3.61859 70.8163 4.13065C73.1048 4.47203 75.2373 5.41082 77.0924 7.06649C81.2187 10.7704 81.8428 15.4132 81.3054 20.4485C81.2013 21.3531 80.9239 22.2407 80.8546 23.1454C80.6465 25.8081 79.3636 28.0441 78.098 30.2972C77.9593 30.5362 77.7686 30.7751 77.5432 30.9458C74.9599 32.9599 72.0646 34.1377 68.7532 34.2913C67.9383 34.3255 67.1408 34.462 65.9445 34.6156ZM66.0139 26.2519C67.0021 26.2519 67.6782 26.286 68.3544 26.2348C69.0132 26.2007 69.8801 26.3202 70.2615 25.9617C71.1977 25.1083 72.498 24.0671 72.6367 22.9917C73.1048 19.3731 73.5903 15.7375 71.3364 12.2725C69.9321 10.1048 67.8343 10.2925 65.9965 9.43907C66.0139 15.1571 66.0139 20.6362 66.0139 26.2519Z" fill="#C4AC3F"/>
<path d="M113.483 20.9606C113.258 19.2537 112.911 17.6151 112.877 15.9594C112.842 13.9794 111.212 13.2966 110.103 12.1872C110.016 12.1018 109.739 12.0677 109.652 12.136C108.473 12.9041 107.051 13.1772 106.601 14.9523C104.589 22.8552 104.433 30.6386 107.398 38.3367C107.693 39.1048 109.877 40.7775 110.657 40.8287C110.744 40.8287 110.848 40.8458 110.9 40.7946C112.079 39.7022 113.379 38.7122 114.35 37.4491C114.94 36.681 114.957 35.4862 115.304 34.5132C115.46 34.0695 115.789 33.6769 116.084 33.3014C117.818 31.0995 120.037 32.2089 122.117 32.5162C122.343 32.5503 122.672 33.0453 122.638 33.3014C122.204 37.0565 122.031 40.9141 119.916 44.1913C117.852 47.4002 115.183 49.8069 110.883 49.7899C108.837 49.7899 106.878 49.4485 105.37 48.3561C103.827 47.2295 102.7 45.5056 101.59 43.9182C99.8217 41.3408 99.6136 38.2343 98.8681 35.3155C97.4985 29.8876 97.7585 24.3914 98.2093 18.9464C98.5387 14.9011 99.2149 10.8046 101.538 7.186C103.289 4.47205 107.19 2.49206 110.467 2.78223C114.784 3.17481 117.644 5.73514 119.985 8.89288C120.782 9.95115 120.713 11.658 120.938 13.0918C121.06 13.8599 120.852 14.6792 120.973 15.4644C121.268 17.359 120.401 18.844 119.413 20.312C119.205 20.6021 118.754 20.9094 118.407 20.9094C116.778 20.9947 115.13 20.9606 113.483 20.9606Z" fill="#C4AC3F"/>
<path d="M93.7536 10.2413C93.7536 13.5014 93.8229 16.5397 93.7362 19.578C93.5802 24.7328 93.1814 29.8876 93.1294 35.0423C93.0947 38.9511 93.4242 42.8428 93.6149 46.7516C93.6149 46.9223 93.6669 47.0759 93.6842 47.2466C93.8229 49.2095 93.7709 49.2436 91.7424 49.2436C90.0607 49.2436 88.3617 49.2436 86.4546 49.2436C86.2465 48.0318 85.8304 46.8369 85.8478 45.6421C85.9344 36.8175 86.1078 28.01 86.2292 19.1854C86.2638 16.4373 86.2639 13.6892 86.2118 10.9411C86.1945 10.173 86.4199 9.71216 87.2174 9.71216C88.379 9.71216 89.5579 9.72923 90.7195 9.83164C91.8118 9.89992 92.8867 10.1047 93.7536 10.2413Z" fill="#C4AC3F"/>
<path d="M87.6509 -6.10352e-05C89.9394 0.614418 92.1066 1.16062 94.2391 1.80924C94.5685 1.91165 95.0366 2.44079 95.0019 2.71389C94.7765 4.6256 94.6378 6.65679 92.6094 7.71506C92.0719 7.98816 91.4131 8.05644 90.8063 8.19299C90.6503 8.22713 90.4769 8.07351 90.3209 8.09058C87.7029 8.32954 86.6453 6.45197 85.9865 4.59146C85.6398 3.5844 86.2813 2.21889 86.5933 1.04114C86.68 0.699762 87.1828 0.460798 87.6509 -6.10352e-05Z" fill="#C4AC3F"/>
<path d="M0.583453 21.968C0.583453 19.5101 0.652803 17.0522 0.566116 14.6113C0.427418 10.6172 1.9531 7.25465 4.44967 4.23346C4.65772 3.9945 4.91778 3.73846 5.19518 3.61898C9.07873 1.9633 13.153 1.00745 17.2446 2.33882C19.013 2.91916 20.452 4.5407 22.0297 5.70138C22.099 5.75259 22.1337 5.83793 22.1857 5.88914C25.3758 8.60309 25.5492 12.4606 25.9306 16.1305C26.2427 19.0834 26.0173 22.1046 25.9133 25.0745C25.7572 29.2393 25.4451 33.3871 25.2544 37.5348C25.0984 41.1193 23.6941 44.1917 21.6309 47.0592C21.4576 47.2982 21.0935 47.4347 20.7988 47.5542C17.0366 48.9709 13.1877 49.3635 9.26944 48.3394C5.28186 47.2982 2.68127 44.8232 1.71038 40.8462C1.17292 38.6272 0.722152 36.3912 0.358068 34.1381C0.115346 32.636 0.0459969 31.0998 0.0286596 29.5807C-0.0233523 27.0375 0.0113223 24.5113 0.0113223 21.968C0.202033 21.968 0.392743 21.968 0.583453 21.968ZM17.4353 40.5901C17.6607 38.7808 17.9728 36.9033 18.1288 35.0257C18.3889 31.9533 18.5276 28.8809 18.7529 25.8085C19.0824 21.3023 18.9957 16.8473 17.4527 12.5119C17.3486 12.2046 17.2446 11.8462 17.0192 11.6584C15.3895 10.2417 13.6905 8.96153 11.2979 9.81498C10.9512 9.93446 10.5351 9.88325 10.171 9.98566C9.92826 10.0539 9.59885 10.2417 9.51217 10.4465C9.04406 11.6755 8.41991 12.9044 8.2292 14.1846C7.32766 20.0734 7.95181 25.9792 8.15985 31.8679C8.2292 33.9162 8.71465 35.9645 9.06139 37.9957C9.13074 38.4053 9.35613 38.9174 9.68554 39.1393C11.9741 40.6584 14.5053 41.2217 17.4353 40.5901Z" fill="#C4AC3F"/>
<path d="M37.2166 40.0776C39.2277 40.1459 40.9788 40.2995 42.7125 40.2313C45.2091 40.1459 47.6883 39.9411 50.1675 39.7192C50.965 39.6509 51.2945 40.0094 51.5545 40.675C52.5601 43.15 52.352 45.7104 52.404 48.3219C44.8797 49.6362 37.442 48.7657 29.8309 48.5096C29.5361 45.6933 29.2241 43.0305 29.0334 40.3507C28.9987 39.8387 29.3108 39.2413 29.5881 38.7633C33.0036 32.7551 36.5404 26.7981 39.8172 20.7215C41.3255 17.9223 42.2964 14.8328 43.5967 11.6751C40.9961 11.5214 38.5342 11.3337 36.0723 11.2313C33.229 11.1118 30.351 10.6509 27.5423 11.658C27.369 11.7263 26.7102 11.1289 26.7102 10.8387C26.6928 9.30249 26.8142 7.76629 26.8835 6.24716C26.8835 6.07647 26.8835 5.90578 26.8835 5.75216C27.0222 3.44787 27.5077 3.12356 29.7962 3.27718C32.1021 3.44787 34.4253 3.4308 36.7311 3.48201C41.0828 3.56735 45.4344 3.65269 49.7861 3.73804C49.8728 3.73804 49.9595 3.73804 50.0462 3.75511C53.0109 4.40372 52.4214 3.72097 52.6814 6.58854C53.0282 10.4973 51.9359 13.894 50.2022 17.3931C47.2202 23.4014 43.666 29.0853 40.2333 34.8375C39.2624 36.459 38.3262 38.1318 37.2166 40.0776Z" fill="#C4AC3F"/>
</svg>
