<svg width="191" height="65" viewBox="0 0 191 65" fill="none" xmlns="http://www.w3.org/2000/svg">
<path d="M173.907 14.8879C172.718 15.018 171.442 15.1263 170.187 15.3213C169.879 15.3647 169.615 15.6898 169.372 15.9498C169.196 16.1448 169.13 16.4049 169.02 16.6649C168.558 17.8569 167.501 19.2005 167.766 20.2407C168.25 22.2777 168.932 24.4448 170.913 25.7668C174.105 27.8688 177.231 30.101 180.51 32.0513C185.507 35.0419 188.589 39.2678 189.909 44.8372C190.9 49.0414 190.504 53.2022 188.787 57.0597C187.994 58.8367 186.278 60.4187 184.605 61.5456C181.589 63.626 178.089 64.8395 174.347 64.7095C171.53 64.6228 168.602 64.4278 165.939 63.626C163.429 62.8675 160.964 61.6539 159.863 58.75C158.983 56.4312 158.323 54.1557 158.609 51.6853C158.697 50.9918 159.049 50.3417 159.335 49.6915C160.612 46.896 163.275 47.2644 165.674 47.0693C166.027 47.0477 166.555 47.5678 166.797 47.9578C168.008 49.9516 169.086 52.0103 170.319 53.9824C170.583 54.4158 171.221 54.7409 171.75 54.9142C174.611 55.8461 176.944 54.4808 179.256 53.1372C179.476 53.0072 179.828 52.8338 179.85 52.6388C180.048 50.6667 181.061 48.8464 180.07 46.6576C178.639 43.4936 176.262 41.4349 173.291 40.0263C168.536 37.7725 164.464 34.5869 160.546 31.2495C158.983 29.9276 158.014 27.5438 157.53 25.4634C156.474 20.9775 156.165 16.3832 158.08 11.9407C159.181 9.36183 160.832 7.32475 163.319 5.80778C166.841 3.68403 170.649 4.00909 174.501 4.33416C175.866 4.44251 177.231 4.76758 178.595 5.07097C182.161 5.82946 183.922 8.47332 185.287 11.4856C185.485 11.8973 185.573 12.3958 185.573 12.8509C185.595 15.3864 185.639 17.9219 185.551 20.4574C185.529 20.9991 185.089 21.6926 184.627 22.0394C182.58 23.578 180.312 24.2064 177.715 23.6647C176.856 23.4913 176.394 23.2746 176.152 22.4511C175.426 19.9806 174.677 17.5101 173.907 14.8879Z" fill="#C4AC3F"/>
<path d="M83.7245 43.9488C84.3189 49.1715 84.8691 54.1775 85.4855 59.2051C85.6836 60.7871 84.4509 63.5827 83.0642 64.3195C82.8 64.4495 82.4478 64.4495 82.1397 64.4278C81.3913 64.3845 80.6429 64.2978 79.8945 64.2328C76.4166 63.9294 74.5896 62.3691 74.2595 58.9884C73.8412 54.7409 73.5111 50.4717 73.379 46.2026C72.9828 33.4167 72.7186 20.6525 72.4105 7.86659C72.3444 5.46111 73.8853 4.00916 76.3066 4.16086C80.841 4.46425 85.4194 4.59428 89.9099 5.24441C92.8154 5.67782 95.5229 6.86973 97.8781 8.97181C103.117 13.6744 103.909 19.5689 103.227 25.9619C103.095 27.1104 102.743 28.2373 102.655 29.3859C102.391 32.7665 100.762 35.6054 99.1548 38.466C98.9787 38.7694 98.7366 39.0728 98.4504 39.2895C95.1707 41.8467 91.4947 43.342 87.2904 43.537C86.2559 43.5804 85.2433 43.7537 83.7245 43.9488ZM83.8126 33.33C85.0673 33.33 85.9257 33.3733 86.7842 33.3083C87.6206 33.265 88.7212 33.4167 89.2055 32.9616C90.3941 31.878 92.045 30.5561 92.2211 29.1908C92.8154 24.5966 93.4317 19.9807 90.5702 15.5815C88.7873 12.8292 86.1238 13.0676 83.7906 11.9841C83.8126 19.2439 83.8126 26.2002 83.8126 33.33Z" fill="#C4AC3F"/>
<path d="M144.081 26.612C143.795 24.4449 143.355 22.3645 143.311 20.2624C143.267 17.7486 141.197 16.8818 139.789 15.4731C139.679 15.3648 139.326 15.3214 139.216 15.4081C137.72 16.3833 135.915 16.7301 135.342 18.9838C132.789 29.0175 132.591 38.8995 136.355 48.6731C136.729 49.6483 139.502 51.772 140.493 51.837C140.603 51.837 140.735 51.8587 140.801 51.7937C142.298 50.4068 143.949 49.1498 145.182 47.5462C145.93 46.571 145.952 45.054 146.392 43.8188C146.59 43.2553 147.009 42.7569 147.383 42.2801C149.584 39.4846 152.401 40.8932 155.043 41.2833C155.329 41.3266 155.747 41.9551 155.703 42.2801C155.153 47.0478 154.933 51.9454 152.247 56.1062C149.628 60.1804 146.238 63.236 140.779 63.2143C138.182 63.2143 135.694 62.7809 133.779 61.3939C131.82 59.9637 130.39 57.7749 128.981 55.7595C126.736 52.4872 126.472 48.5431 125.525 44.8373C123.786 37.9459 124.116 30.9679 124.689 24.0548C125.107 18.9188 125.965 13.7178 128.915 9.12354C131.138 5.67785 136.091 3.16402 140.251 3.53243C145.732 4.03086 149.364 7.28151 152.335 11.2906C153.348 12.6342 153.26 14.8013 153.546 16.6217C153.7 17.5969 153.436 18.6371 153.59 19.634C153.964 22.0394 152.864 23.9248 151.609 25.7885C151.345 26.1569 150.773 26.547 150.332 26.547C148.263 26.6554 146.172 26.612 144.081 26.612Z" fill="#C4AC3F"/>
<path d="M119.031 13.0026C119.031 17.1418 119.12 20.9992 119.009 24.8566C118.811 31.4013 118.305 37.9459 118.239 44.4905C118.195 49.4532 118.613 54.3942 118.855 59.3568C118.855 59.5736 118.921 59.7686 118.943 59.9853C119.12 62.4775 119.053 62.5208 116.478 62.5208C114.343 62.5208 112.186 62.5208 109.765 62.5208C109.5 60.9822 108.972 59.4652 108.994 57.9482C109.104 46.7443 109.324 35.5621 109.478 24.3582C109.522 20.8692 109.522 17.3801 109.456 13.8911C109.434 12.9159 109.72 12.3308 110.733 12.3308C112.208 12.3308 113.705 12.3525 115.179 12.4825C116.566 12.5692 117.931 12.8292 119.031 13.0026Z" fill="#C4AC3F"/>
<path d="M111.283 0C114.189 0.780155 116.94 1.47363 119.648 2.29712C120.066 2.42715 120.66 3.09895 120.616 3.44568C120.33 5.87283 120.154 8.45168 117.579 9.79528C116.896 10.142 116.06 10.2287 115.29 10.4021C115.091 10.4454 114.871 10.2504 114.673 10.272C111.349 10.5754 110.007 8.19163 109.17 5.82949C108.73 4.5509 109.544 2.81723 109.941 1.32193C110.051 0.88851 110.689 0.585116 111.283 0Z" fill="#C4AC3F"/>
<path d="M0.740765 27.891C0.740765 24.7704 0.828812 21.6498 0.718753 18.5508C0.542658 13.4798 2.4797 9.21065 5.6494 5.37489C5.91354 5.07149 6.24372 4.74643 6.5959 4.59473C11.5265 2.49265 16.6993 1.27907 21.8941 2.96941C24.1393 3.70622 25.9663 5.76497 27.9694 7.23859C28.0574 7.30361 28.1014 7.41196 28.1675 7.47697C32.2176 10.9227 32.4378 15.8203 32.922 20.4796C33.3182 24.2286 33.0321 28.0644 32.9 31.8352C32.7019 37.1229 32.3057 42.3889 32.0636 47.655C31.8655 52.2059 30.0825 56.1067 27.4631 59.7474C27.243 60.0508 26.7807 60.2241 26.4065 60.3758C21.63 62.1745 16.7433 62.673 11.7687 61.3727C6.70596 60.0508 3.40419 56.9085 2.17153 51.8591C1.48917 49.0419 0.916859 46.203 0.454611 43.3424C0.146446 41.4354 0.0583987 39.485 0.0363869 37.5563C-0.0296486 34.3273 0.0143751 31.12 0.0143751 27.891C0.256505 27.891 0.498635 27.891 0.740765 27.891ZM22.1362 51.5341C22.4224 49.237 22.8186 46.8531 23.0167 44.4693C23.3469 40.5686 23.523 36.6678 23.8091 32.767C24.2274 27.0459 24.1173 21.3897 22.1583 15.8853C22.0262 15.4952 21.8941 15.0401 21.608 14.8018C19.5388 13.0031 17.3817 11.3777 14.3441 12.4613C13.9038 12.613 13.3755 12.548 12.9133 12.678C12.6051 12.7647 12.1869 13.0031 12.0768 13.2631C11.4825 14.8234 10.6901 16.3837 10.448 18.0091C9.30336 25.4856 10.0958 32.9837 10.3599 40.4602C10.448 43.0607 11.0643 45.6612 11.5045 48.2401C11.5926 48.7602 11.8787 49.4103 12.297 49.692C15.2025 51.6208 18.4162 52.3359 22.1362 51.5341Z" fill="#C4AC3F"/>
<path d="M47.2509 50.8834C49.8043 50.9701 52.0275 51.1651 54.2287 51.0784C57.3984 50.9701 60.5461 50.71 63.6938 50.4283C64.7063 50.3416 65.1245 50.7967 65.4547 51.6419C66.7314 54.7842 66.4672 58.0348 66.5333 61.3505C56.9802 63.0191 47.5371 61.9139 37.8739 61.5889C37.4997 58.0131 37.1035 54.6325 36.8614 51.2301C36.8173 50.58 37.2135 49.8215 37.5657 49.2147C41.9021 41.5865 46.3925 34.0234 50.5527 26.3085C52.4677 22.7545 53.7004 18.832 55.3513 14.8229C52.0495 14.6278 48.9238 14.3895 45.7982 14.2594C42.1882 14.1077 38.5343 13.5226 34.9683 14.8012C34.7482 14.8879 33.9118 14.1294 33.9118 13.761C33.8898 11.8106 34.0439 9.86023 34.1319 7.93151C34.1319 7.7148 34.1319 7.49809 34.1319 7.30305C34.308 4.37747 34.9243 3.96572 37.8299 4.16076C40.7574 4.37747 43.707 4.3558 46.6346 4.42081C52.1596 4.52917 57.6845 4.63752 63.2095 4.74588C63.3196 4.74588 63.4296 4.74588 63.5397 4.76755C67.3037 5.59105 66.5553 4.72421 66.8855 8.36493C67.3257 13.3276 65.939 17.6401 63.7378 22.0827C59.9517 29.7108 55.4393 36.9273 51.081 44.2304C49.8483 46.2891 48.6597 48.4129 47.2509 50.8834Z" fill="#C4AC3F"/>
</svg>
